<svg width="24" height="24" viewBox="0 0 24 24" fill="none" xmlns="http://www.w3.org/2000/svg">
    <path fill-rule="evenodd" clip-rule="evenodd"
        d="M15.6688 7C15.6688 6.80109 15.7478 6.61032 15.8885 6.46967C16.0291 6.32902 16.2199 6.25 16.4188 6.25H22.0008C22.1997 6.25 22.3905 6.32902 22.5311 6.46967C22.6718 6.61032 22.7508 6.80109 22.7508 7V12.546C22.7508 12.7449 22.6718 12.9357 22.5311 13.0763C22.3905 13.217 22.1997 13.296 22.0008 13.296C21.8019 13.296 21.6111 13.217 21.4705 13.0763C21.3298 12.9357 21.2508 12.7449 21.2508 12.546V8.803L15.1148 14.9C14.6458 15.366 14.2418 15.768 13.8748 16.047C13.4808 16.345 13.0448 16.571 12.5058 16.571C11.9678 16.571 11.5308 16.345 11.1368 16.046C10.7698 15.768 10.3668 15.366 9.89681 14.9L9.62281 14.627C9.10881 14.116 8.77581 13.787 8.49781 13.576C8.23781 13.378 8.11581 13.356 8.03481 13.356C7.95481 13.356 7.83281 13.379 7.57281 13.576C7.29581 13.787 6.96281 14.116 6.44881 14.628L2.52981 18.53C2.38739 18.6622 2.19921 18.734 2.0049 18.7302C1.8106 18.7264 1.62536 18.6474 1.4882 18.5097C1.35104 18.372 1.27268 18.1865 1.26962 17.9922C1.26657 17.7978 1.33905 17.6099 1.47181 17.468L5.42481 13.53C5.89481 13.064 6.29781 12.661 6.66481 12.382C7.05881 12.082 7.49581 11.857 8.03481 11.856C8.57381 11.856 9.01081 12.082 9.40481 12.381C9.77181 12.66 10.1758 13.062 10.6448 13.529L10.9198 13.801C11.4338 14.312 11.7668 14.641 12.0438 14.851C12.3038 15.049 12.4258 15.071 12.5058 15.071C12.5858 15.071 12.7078 15.049 12.9678 14.851C13.2458 14.641 13.5778 14.312 14.0928 13.801L20.1828 7.749H16.4188C16.2199 7.749 16.0291 7.66998 15.8885 7.52933C15.7478 7.38868 15.6688 7.19891 15.6688 7Z"
        fill="#36A76A" />
</svg>