<svg width="24" height="24" viewBox="0 0 24 24" fill="none" xmlns="http://www.w3.org/2000/svg">
    <path fill-rule="evenodd" clip-rule="evenodd"
        d="M15.6688 17C15.6688 17.1989 15.7478 17.3897 15.8885 17.5303C16.0291 17.671 16.2199 17.75 16.4188 17.75H22.0008C22.1997 17.75 22.3905 17.671 22.5311 17.5303C22.6718 17.3897 22.7508 17.1989 22.7508 17V11.454C22.7508 11.2551 22.6718 11.0643 22.5311 10.9237C22.3905 10.783 22.1997 10.704 22.0008 10.704C21.8019 10.704 21.6111 10.783 21.4705 10.9237C21.3298 11.0643 21.2508 11.2551 21.2508 11.454V15.197L15.1148 9.1C14.6458 8.634 14.2418 8.232 13.8748 7.953C13.4808 7.655 13.0448 7.429 12.5058 7.429C11.9678 7.429 11.5308 7.655 11.1368 7.954C10.7698 8.232 10.3668 8.634 9.89681 9.1L9.62281 9.373C9.10881 9.884 8.77581 10.213 8.49781 10.424C8.23781 10.622 8.11581 10.644 8.03481 10.644C7.95481 10.644 7.83281 10.621 7.57281 10.424C7.29581 10.213 6.96281 9.884 6.44881 9.372L2.52981 5.47C2.38739 5.33778 2.19921 5.266 2.0049 5.26979C1.8106 5.27358 1.62536 5.35264 1.4882 5.49032C1.35104 5.62799 1.27268 5.81353 1.26962 6.00785C1.26657 6.20216 1.33905 6.39008 1.47181 6.532L5.42481 10.47C5.89481 10.936 6.29781 11.339 6.66481 11.618C7.05881 11.918 7.49581 12.143 8.03481 12.144C8.57381 12.144 9.01081 11.918 9.40481 11.619C9.77181 11.34 10.1758 10.938 10.6448 10.471L10.9198 10.199C11.4338 9.688 11.7668 9.359 12.0438 9.149C12.3038 8.951 12.4258 8.929 12.5058 8.929C12.5858 8.929 12.7078 8.951 12.9678 9.149C13.2458 9.359 13.5778 9.688 14.0928 10.199L20.1828 16.251H16.4188C16.2199 16.251 16.0291 16.33 15.8885 16.4707C15.7478 16.6113 15.6688 16.8011 15.6688 17Z"
        fill="#CE1126" />
</svg>